<?xml version="1.0" standalone="no"?>
<!DOCTYPE svg PUBLIC "-//W3C//DTD SVG 20010904//EN"
 "http://www.w3.org/TR/2001/REC-SVG-20010904/DTD/svg10.dtd">
<svg version="1.0" xmlns="http://www.w3.org/2000/svg"
 width="600.000000pt" height="174.000000pt" viewBox="0 0 600.000000 174.000000"
 preserveAspectRatio="xMidYMid meet">
<metadata>
Created by potrace 1.11, written by Peter Selinger 2001-2013
</metadata>
<g transform="translate(0.000000,174.000000) scale(0.100000,-0.100000)"
fill="#000000" stroke="none">
<path d="M1244 1583 c-6 -5 -11 -15 -11 -23 0 -12 15 -14 84 -12 l84 4 -3 -29
-3 -28 -67 3 c-45 3 -68 0 -68 -7 0 -7 25 -11 64 -11 59 0 65 -2 68 -22 2 -18
16 -26 72 -42 64 -18 69 -19 81 -3 17 23 31 21 82 -8 38 -23 42 -28 32 -47 -6
-11 -7 -24 -2 -28 74 -69 105 -89 123 -80 15 8 23 4 45 -23 15 -17 22 -23 17
-12 -6 11 -20 30 -32 43 -12 13 -20 26 -17 28 3 3 -17 25 -43 50 -43 40 -47
47 -37 68 9 20 15 22 30 14 16 -8 16 -5 -4 21 -21 29 -151 106 -161 96 -7 -7
-161 33 -167 44 -8 10 -152 14 -167 4z m271 -47 c26 -8 40 -18 39 -28 -1 -10
4 -14 12 -11 7 2 42 -12 79 -32 57 -32 64 -39 53 -54 -7 -9 -14 -18 -15 -20
-2 -2 -34 11 -72 30 -43 21 -68 39 -66 47 3 7 1 11 -4 7 -17 -10 -112 18 -122
37 -21 38 18 48 96 24z"/>
<path d="M1120 1553 c-121 -24 -217 -73 -205 -104 5 -14 16 -11 72 19 53 28
67 32 74 21 15 -24 10 -39 -16 -49 -13 -5 -42 -20 -63 -34 -30 -19 -42 -22
-51 -13 -9 9 -11 8 -6 -4 4 -10 -11 -29 -45 -58 -44 -37 -53 -41 -68 -30 -15
12 -15 11 1 -7 16 -19 16 -22 2 -34 -9 -7 -28 -33 -42 -57 -20 -34 -30 -43
-45 -40 -14 4 -17 2 -9 -7 7 -9 4 -28 -10 -67 -11 -29 -23 -88 -25 -129 -6
-95 -8 -100 -39 -100 -22 0 -25 4 -25 33 1 52 17 119 30 127 9 6 9 9 -1 12
-11 4 -11 14 3 59 10 30 24 63 33 74 29 39 105 155 105 161 0 3 26 30 57 60
73 68 59 71 -18 4 -32 -27 -61 -50 -66 -50 -11 0 -93 -125 -93 -142 0 -16 -44
-131 -61 -162 -16 -27 -31 -157 -20 -170 4 -6 11 -41 14 -77 3 -36 7 -72 9
-80 2 -8 -3 -13 -10 -11 -10 2 -10 -3 1 -20 8 -13 25 -51 38 -85 13 -35 28
-63 34 -64 11 0 90 -118 90 -134 0 -14 127 -125 136 -119 5 3 23 -2 41 -11
l33 -16 -25 20 c-25 20 -25 20 -5 35 11 9 23 16 26 16 15 0 99 -53 99 -63 0
-7 5 -5 10 5 6 10 19 15 32 12 13 -2 17 -2 11 2 -7 3 -13 14 -13 24 0 21 -8
28 -78 66 -52 28 -54 28 -67 10 -14 -18 -16 -17 -60 18 -51 42 -49 39 -33 65
10 17 6 28 -29 78 -34 47 -46 57 -66 55 -22 -2 -28 4 -46 53 -26 68 -26 65 0
65 21 0 21 4 16 67 -4 58 -9 70 -32 89 -19 15 -25 27 -21 40 3 11 6 36 8 57 2
33 5 37 29 37 23 0 29 7 48 61 21 57 22 62 6 79 -16 17 -15 21 16 69 29 44 36
49 60 44 22 -4 38 3 74 32 40 33 45 42 40 66 -6 27 -3 30 49 56 54 26 56 26
70 8 13 -18 15 -18 81 1 38 11 70 24 72 30 2 5 -3 19 -11 29 -14 20 -16 20
-82 2 -54 -14 -69 -15 -76 -5 -21 34 8 61 77 74 43 7 84 24 55 23 -8 -1 -49
-8 -90 -16z m-446 -775 c4 -38 12 -68 17 -68 5 0 9 -6 9 -12 0 -7 11 -39 24
-71 23 -56 23 -58 5 -68 -27 -14 -35 -6 -59 59 -11 31 -27 71 -35 87 -7 17
-16 56 -20 88 l-8 59 29 -4 c28 -3 29 -6 38 -70z m123 -294 c15 -24 33 -44 38
-44 6 -1 34 -23 64 -50 47 -42 53 -51 42 -64 -8 -9 -17 -16 -22 -16 -4 0 -35
23 -68 50 -33 28 -64 50 -68 50 -10 0 -83 105 -83 118 0 14 42 20 57 9 7 -5
25 -29 40 -53z"/>
<path d="M1804 1373 c21 -22 36 -46 32 -51 -3 -5 1 -15 9 -22 7 -6 28 -34 46
-62 36 -56 37 -53 -30 -90 l-31 -17 24 -63 c18 -47 30 -65 49 -72 15 -5 28
-17 30 -25 2 -9 2 -1 0 17 -3 24 0 32 12 32 15 0 15 1 1 16 -9 8 -16 21 -16
28 0 6 -8 28 -18 48 l-19 36 24 11 c14 6 29 9 34 6 5 -3 7 8 5 24 -4 34 -65
136 -111 185 -16 18 -20 20 -7 6 41 -48 23 -55 -25 -10 l-48 45 39 -42z"/>
<path d="M1273 1324 c-34 -24 -151 -61 -220 -69 l-63 -7 -1 -101 c-3 -247 7
-311 61 -424 39 -80 104 -151 189 -208 71 -47 89 -52 122 -35 16 9 19 7 19 -9
0 -15 5 -18 23 -14 12 3 27 11 32 17 6 6 29 26 52 43 37 29 45 31 71 22 38
-13 72 2 72 32 0 20 -7 20 -56 2 -7 -2 -11 7 -11 21 0 19 5 26 18 26 11 0 23
10 29 24 11 29 38 46 73 46 30 0 50 22 45 50 -3 22 -3 22 -40 -3 l-36 -25 -5
24 c-3 18 -1 22 8 14 8 -7 17 -4 30 10 10 11 24 20 31 20 23 0 42 28 37 54 -6
31 -9 31 -31 9 -16 -16 -17 -15 -20 3 -5 32 -25 64 -39 64 -7 0 -13 7 -13 17
0 15 1 15 18 0 38 -34 56 -12 26 31 -14 20 -14 22 0 22 10 0 16 -9 16 -21 0
-17 4 -19 23 -13 12 4 25 12 30 18 9 13 -1 60 -13 64 -5 2 -6 10 -3 18 9 25
-6 66 -23 60 -8 -3 -28 4 -45 16 -24 18 -29 29 -29 62 0 23 -4 46 -8 52 -4 6
-36 14 -73 18 -38 4 -100 22 -150 42 -106 45 -119 47 -146 28z m172 -94 c22
-7 65 -18 95 -24 l55 -11 3 -45 c2 -25 1 -86 -3 -136 l-7 -91 -73 -5 c-40 -3
-98 -3 -129 0 l-56 4 0 179 0 179 38 -18 c20 -11 55 -25 77 -32z m-137 -518
l2 -183 -30 16 c-16 8 -59 43 -95 76 -73 69 -124 159 -133 234 l-5 46 129 -3
129 -3 3 -183z"/>
<path d="M925 1130 c-13 -14 -22 -17 -29 -10 -17 17 -26 11 -26 -15 0 -28 20
-75 32 -75 4 0 8 -6 8 -14 0 -8 6 -16 13 -19 10 -4 10 -7 0 -18 -18 -18 -16
-49 2 -49 14 0 14 -3 0 -29 -15 -29 -12 -61 6 -61 5 0 9 -7 9 -15 0 -22 -8
-19 -37 15 -27 32 -43 38 -43 17 0 -18 27 -47 72 -77 29 -19 38 -32 38 -53 0
-16 7 -30 15 -34 9 -3 22 -21 30 -39 8 -19 19 -34 24 -34 6 0 17 -13 26 -30 9
-16 21 -30 29 -30 7 0 23 -11 36 -25 13 -14 29 -25 36 -25 6 0 17 -7 24 -16 8
-8 22 -20 32 -25 14 -8 18 -6 18 6 0 16 -26 43 -89 95 -45 36 -92 86 -106 112
-6 13 -23 43 -37 68 -28 50 -52 166 -42 205 8 32 -5 195 -15 195 -5 0 -16 -9
-26 -20z"/>
<path d="M1993 1033 c-6 -2 -7 -24 -1 -60 12 -80 8 -105 -19 -109 -20 -3 -23
1 -24 29 -2 30 -2 30 -6 5 -3 -19 -10 -28 -23 -28 -25 0 -26 -4 -34 -80 -6
-58 -5 -66 13 -77 11 -7 28 -9 38 -5 19 7 21 16 24 93 2 47 2 47 43 52 22 3
42 4 44 2 7 -7 -21 -165 -29 -165 -5 0 -9 8 -9 18 0 13 -2 14 -9 3 -5 -8 -14
-10 -21 -6 -9 5 -11 4 -6 -3 6 -10 -12 -62 -51 -149 -3 -7 5 -16 17 -21 21 -8
20 -9 -20 -70 -23 -34 -46 -64 -51 -68 -20 -12 -22 6 -3 28 l19 23 -23 -19
c-22 -19 -23 -19 -36 -1 -12 17 -10 24 20 64 19 24 34 50 34 57 0 8 6 11 17 7
14 -5 13 -3 -3 14 -10 11 -21 18 -23 17 -2 -2 -12 1 -22 6 -15 9 -25 1 -60
-46 -36 -50 -40 -60 -30 -77 11 -17 8 -25 -26 -61 l-38 -41 47 44 c40 38 49
42 63 31 25 -21 18 -36 -40 -85 -47 -41 -57 -46 -71 -34 -8 7 -13 21 -10 32 2
10 2 16 -1 13 -4 -3 -14 1 -24 10 -16 14 -22 13 -79 -16 -50 -25 -61 -35 -57
-51 3 -11 -1 -23 -11 -29 -14 -8 -13 -9 8 -7 21 2 25 -2 25 -23 0 -22 -7 -27
-65 -42 -36 -10 -70 -16 -77 -14 -18 7 -24 -21 -7 -35 15 -12 31 -11 145 14
75 16 162 57 194 90 12 12 54 49 94 82 39 33 84 77 99 99 23 34 82 168 82 189
0 4 8 27 19 50 28 62 34 126 20 219 -7 46 -13 95 -13 110 -1 25 -13 31 -43 21z"/>
<path d="M1235 281 c-3 -11 -3 -30 0 -43 11 -46 -5 -52 -88 -31 -79 20 -101
18 -103 -8 -1 -11 19 -20 78 -33 92 -21 128 -12 128 32 0 23 2 24 70 20 58 -2
70 0 73 14 3 9 18 18 33 21 l29 4 -27 2 c-16 0 -32 9 -38 21 -9 17 -21 20 -80
20 -59 0 -70 -3 -75 -19z"/>
<path d="M973 142 l-243 -2 0 -70 c0 -90 16 -92 85 -11 28 33 56 60 64 60 9 1
4 -10 -14 -29 l-29 -30 29 -30 c16 -17 37 -30 47 -30 15 0 18 9 18 60 l0 59
35 7 c42 8 78 -17 73 -50 -2 -16 -11 -21 -38 -23 -29 -2 -31 -1 -10 6 39 11
33 45 -7 49 l-33 3 0 -55 0 -56 60 0 60 0 0 60 0 60 53 -2 c48 -1 49 -2 11 -5
-37 -4 -42 -7 -46 -31 -7 -56 1 -72 37 -72 18 0 40 -3 49 -6 14 -5 16 3 16 55
l0 61 44 0 c55 0 75 -20 56 -54 -9 -18 -9 -29 -1 -45 20 -37 31 -23 31 39 0
33 4 60 10 60 6 0 10 -27 10 -60 0 -33 4 -60 10 -60 6 0 10 27 10 60 l0 60 53
-2 c50 -1 50 -2 10 -5 l-43 -4 0 -50 0 -49 34 0 c19 0 41 -3 50 -6 13 -5 16 3
16 46 0 31 4 49 10 45 6 -3 10 -26 10 -51 l0 -44 46 0 46 0 -51 57 c-28 31
-51 62 -51 67 0 6 22 -14 50 -44 l49 -55 1 48 c0 26 5 47 10 47 6 0 10 -27 10
-60 0 -33 4 -60 10 -60 6 0 10 27 10 60 l0 60 59 0 c62 0 78 -9 66 -38 -6 -15
-8 -14 -16 6 -7 18 -16 22 -49 22 l-40 0 0 -50 0 -50 44 0 c34 0 46 4 49 17 3
15 6 14 15 -7 9 -22 11 -17 11 38 l1 62 58 -2 57 -1 -45 -6 -45 -6 -3 -46 -3
-46 58 -5 c32 -3 59 -4 61 -3 4 4 4 126 0 131 -6 5 -644 10 -935 6z"/>
</g>
</svg>
